<svg id="Main_frame" data-name="Main frame" xmlns="http://www.w3.org/2000/svg" viewBox="0 0 1836.9 511"><defs><style>.cls-1{fill:#21607f;}.cls-2{fill:#2b4d83;}.cls-3,.cls-5{fill:#17116a;}.cls-4{fill:#090639;}.cls-5{stroke:#17116a;stroke-miterlimit:10;}.cls-6{fill:#0aafff;}</style></defs><g id="Gear_part" data-name="Gear part"><path class="cls-1" d="M186.5,541.5v58.3s34,43.7,72,68.7V508.38S221.5,533.5,186.5,541.5Z" transform="translate(-54.81 -291)"/><path class="cls-2" d="M280,500l-.5,181.1s21,18.4,70,23.4v-255S329,482,280,500Z" transform="translate(-54.81 -291)"/><path class="cls-3" d="M372,436V705s39.81,3,73.4-36.5c-.4.5,0-303.71,0-303.71S425,400,372,436Z" transform="translate(-54.81 -291)"/><path class="cls-4" d="M463,420V543.57s59,179.3-113.5,176.36C181,689,134,536,133,485s31-111,101-111,83,17,134,45l50-47c-19-19-51-35-51-35l-22,31s-4,4-5-2-5-49-5-49l-59-20-7,46s-3,5-6-1-20-51-20-51l-56,1,12,51s1,6-6,1-33-43-33-43l-44,23,27,45s4,7-4,3-39-30-39-30-30,21-30,42l40,34s4,6-3,5L62,407s-12,20-5,58l44,22s5,4-1,6l-40-1s1,40,18,63l43,7s5,4,0,7-32,16-32,16,6,33,36,60l39-6s6,1,2,5-20,28-20,28,35,42,53,50l27-24s5-1,5,4-4,40-4,40,25,27,58,32l14-31s2-4,4,0,11.5,45.49,11.5,45.49S348,802,375,798V760s2-5,5-1l23,43s44-1,57-12l-17-38s0-6,6-3c0,1,31,31,31,31s27-10,41-34l-31-36s-1.07-6.84,6-5.42C496,705,536,729,536,729s17-30,19-53l-42-27s-4-7,3-7,41,8,41,8,5-24-4-64l-46-14s-4-3,1-6l38-9s-17-49-31-64l-41-1s-5-2,0-6l24-23Z" transform="translate(-54.81 -291)"/></g><g id="Text"><path class="cls-5" d="M619.66,437.48h20.2v107.2h-20.2Zm9,87.74h62.82v19.46H628.65Z" transform="translate(-54.81 -291)"/><path class="cls-5" d="M722,502.14q-4.25,4.58-4.24,12.9a11.07,11.07,0,0,0,4.57,9.48q4.58,3.35,12.9,3.35A20.93,20.93,0,0,0,749,523.12q5.74-4.75,8.77-13.57a63.66,63.66,0,0,0,3-20.68h19.46q0,17.63-5.6,30.41a43,43,0,0,1-16.44,19.65q-10.85,6.86-26.33,6.86-10.47,0-17.91-3.62a25.45,25.45,0,0,1-11.36-10.5q-3.9-6.9-3.9-16.63,0-13.12,7.63-21t21.49-9.14L734,497.57Q726.19,497.57,722,502.14Zm3.43-.07a71,71,0,0,1-9-11.47A50,50,0,0,1,711,478.69a43.43,43.43,0,0,1-1.84-12.61q0-14.07,7.88-21.78t22.35-7.71q14.37,0,22.22,7.41t7.86,21v2.95h-20.2V465q0-6.5-2.58-10.1a8.46,8.46,0,0,0-7.3-3.61,10.14,10.14,0,0,0-8.48,3.87q-3,3.87-3,10.94a23.93,23.93,0,0,0,1.92,8.74,55,55,0,0,0,5.57,10.25,97.17,97.17,0,0,0,8.73,11l44.17,48.59H765.49Z" transform="translate(-54.81 -291)"/><path class="cls-5" d="M785.9,437.48h20.79L829.48,509l22.78-71.52h20.79l-35.68,107.2H821.59Z" transform="translate(-54.81 -291)"/><path class="cls-5" d="M928.4,437.48H1007v19.46H928.4Zm29.2,8.77h20.2v98.43H957.6Z" transform="translate(-54.81 -291)"/><path class="cls-5" d="M1023.48,437.48h20.2v107.2h-20.2Zm7.3,0h64.51v19.46h-64.51Zm0,44.24h56.4v19.46h-56.4Zm0,43.5h64.51v19.46h-64.51Z" transform="translate(-54.81 -291)"/><path class="cls-5" d="M1134,541.11a31.31,31.31,0,0,1-13.28-13.64q-4.56-9-4.57-21.64V476.41q0-12.69,4.57-21.64A31.46,31.46,0,0,1,1134,441.09q8.7-4.71,20.94-4.72a37.06,37.06,0,0,1,18.06,4.35,35.53,35.53,0,0,1,13.16,12.65,54.5,54.5,0,0,1,7.19,20h-20.94a27.05,27.05,0,0,0-3.65-9.06,17.59,17.59,0,0,0-6-5.76,15.69,15.69,0,0,0-7.85-2,18.83,18.83,0,0,0-9.66,2.33,15,15,0,0,0-6.09,6.78,25,25,0,0,0-2.1,10.73v29.42a24.79,24.79,0,0,0,2.1,10.69,15,15,0,0,0,6.09,6.74,18.83,18.83,0,0,0,9.66,2.33,16.24,16.24,0,0,0,8-2,16.75,16.75,0,0,0,6-5.71,26.69,26.69,0,0,0,3.54-9.14h20.94a55.64,55.64,0,0,1-7.26,20A35.68,35.68,0,0,1,1173,541.44a36.82,36.82,0,0,1-18,4.35Q1142.74,545.79,1134,541.11Z" transform="translate(-54.81 -291)"/><path class="cls-5" d="M1215,437.48h20.2v107.2H1215Zm9.36,44.31h62.45v19.46h-62.45Zm49.33-44.31h20.2v107.2h-20.2Z" transform="translate(-54.81 -291)"/><path class="cls-5" d="M1322.19,437.48h24.7l39.89,82.13-1.77,1.92v-84h19.32V544.61h-24.85l-39.74-80.88,1.77-1.92v82.8h-19.32Z" transform="translate(-54.81 -291)"/><path class="cls-5" d="M1449,540.88A34,34,0,0,1,1435.26,527a42.72,42.72,0,0,1-4.87-20.75V475.89a42.72,42.72,0,0,1,4.87-20.75A34.08,34.08,0,0,1,1449,441.27a45.48,45.48,0,0,1,41.07,0,34.14,34.14,0,0,1,13.75,13.87,42.83,42.83,0,0,1,4.86,20.75v30.38a42.83,42.83,0,0,1-4.86,20.75,34.05,34.05,0,0,1-13.75,13.86,45.4,45.4,0,0,1-41.07,0Zm30.12-17.62a15.86,15.86,0,0,0,6.38-6.6,21,21,0,0,0,2.24-9.88v-31.4a21,21,0,0,0-2.24-9.88,15.81,15.81,0,0,0-6.38-6.6,20.88,20.88,0,0,0-19.17,0,15.81,15.81,0,0,0-6.38,6.6,20.9,20.9,0,0,0-2.25,9.88v31.4a20.9,20.9,0,0,0,2.25,9.88,15.86,15.86,0,0,0,6.38,6.6,20.88,20.88,0,0,0,19.17,0Z" transform="translate(-54.81 -291)"/><path class="cls-5" d="M1533.28,437.48h20.21v107.2h-20.21Zm9,87.74h62.82v19.46h-62.82Z" transform="translate(-54.81 -291)"/><path class="cls-5" d="M1638,540.88A34,34,0,0,1,1624.23,527a42.72,42.72,0,0,1-4.87-20.75V475.89a42.72,42.72,0,0,1,4.87-20.75A34.08,34.08,0,0,1,1638,441.27a45.48,45.48,0,0,1,41.07,0,34.14,34.14,0,0,1,13.75,13.87,42.83,42.83,0,0,1,4.86,20.75v30.38A42.83,42.83,0,0,1,1692.8,527a34.05,34.05,0,0,1-13.75,13.86,45.4,45.4,0,0,1-41.07,0Zm30.12-17.62a15.86,15.86,0,0,0,6.38-6.6,21,21,0,0,0,2.24-9.88v-31.4a21,21,0,0,0-2.24-9.88,15.81,15.81,0,0,0-6.38-6.6,20.88,20.88,0,0,0-19.17,0,15.75,15.75,0,0,0-6.38,6.6,20.9,20.9,0,0,0-2.25,9.88v31.4a20.9,20.9,0,0,0,2.25,9.88,15.8,15.8,0,0,0,6.38,6.6,20.88,20.88,0,0,0,19.17,0Z" transform="translate(-54.81 -291)"/><path class="cls-5" d="M1797,484.74v20.94a44.38,44.38,0,0,1-4.82,21.05,34.19,34.19,0,0,1-13.68,14.08,41.08,41.08,0,0,1-20.5,5,44,44,0,0,1-20.68-4.68,33.59,33.59,0,0,1-13.86-13.24,39.14,39.14,0,0,1-4.9-19.83V476.41a44.05,44.05,0,0,1,4.82-21,34.27,34.27,0,0,1,13.68-14,41.08,41.08,0,0,1,20.5-5,39.87,39.87,0,0,1,17.69,3.95,36.73,36.73,0,0,1,13.53,11.17,40.85,40.85,0,0,1,7.34,16.73h-21.82a14.29,14.29,0,0,0-3.65-5.86,17.11,17.11,0,0,0-6-3.76,20,20,0,0,0-7.11-1.29,18.68,18.68,0,0,0-9.48,2.36,16.12,16.12,0,0,0-6.34,6.71,21.52,21.52,0,0,0-2.25,10V508a17,17,0,0,0,2.29,8.84,15,15,0,0,0,6.49,5.9,21.74,21.74,0,0,0,9.73,2.07,19.51,19.51,0,0,0,9.55-2.25,15.17,15.17,0,0,0,6.3-6.53,21.62,21.62,0,0,0,2.22-10.1V504.2h-16.23V484.74Z" transform="translate(-54.81 -291)"/><path class="cls-5" d="M1859.35,503.32v41.36h-20.2V503.32l-31.56-65.84h21.17l20.49,46.15,20.5-46.15h21.16Z" transform="translate(-54.81 -291)"/><path class="cls-6" d="M687.42,575.18h12v63.9h-12Zm5.27,52.29h20.39a9.32,9.32,0,0,0,6.4-2,7.1,7.1,0,0,0,2.26-5.6v-.13a8,8,0,0,0-1-4.13,6.51,6.51,0,0,0-3-2.62,11.1,11.1,0,0,0-4.68-.9H692.69v-11.6h20.39a8.2,8.2,0,0,0,5.78-1.89,6.89,6.89,0,0,0,2-5.32,5.92,5.92,0,0,0-2-4.79,8.76,8.76,0,0,0-5.78-1.71H692.69v-11.6h20.79a25,25,0,0,1,10.59,2,14.69,14.69,0,0,1,6.68,5.94,18.12,18.12,0,0,1,2.28,9.33,14.37,14.37,0,0,1-1.47,6.62,12.26,12.26,0,0,1-4.28,4.72,17.45,17.45,0,0,1-6.77,2.51,16.93,16.93,0,0,1,7.23,2.57,13,13,0,0,1,4.57,5.2,16.81,16.81,0,0,1,1.56,7.43v.13a18.21,18.21,0,0,1-2.31,9.41,14.81,14.81,0,0,1-6.72,5.95,25.18,25.18,0,0,1-10.62,2.05H692.69Z" transform="translate(-54.81 -291)"/><path class="cls-6" d="M752.53,637.41a15.65,15.65,0,0,1-6.73-6.79,23.28,23.28,0,0,1-2.3-10.75v-7.43a22.77,22.77,0,0,1,2.3-10.61,15.55,15.55,0,0,1,6.73-6.72,25.73,25.73,0,0,1,21.31,0,15.47,15.47,0,0,1,6.72,6.72,22.64,22.64,0,0,1,2.31,10.61V620a22.74,22.74,0,0,1-2.31,10.66,15.64,15.64,0,0,1-6.72,6.75,25.63,25.63,0,0,1-21.31,0ZM768.81,626a8.36,8.36,0,0,0,2-6v-7.56a8.23,8.23,0,0,0-2-5.93,7.51,7.51,0,0,0-5.67-2.11,7.36,7.36,0,0,0-5.6,2.11,8.27,8.27,0,0,0-2,5.93V620a8.48,8.48,0,0,0,2,6,7.27,7.27,0,0,0,5.62,2.13A7.45,7.45,0,0,0,768.81,626Z" transform="translate(-54.81 -291)"/><path class="cls-6" d="M805,621.19a6.81,6.81,0,0,0,1.87,5.12,7.16,7.16,0,0,0,5.25,1.82,7,7,0,0,0,5.21-1.87,7.33,7.33,0,0,0,1.82-5.33l.62,10a14.25,14.25,0,0,1-4.24,6.29,10.76,10.76,0,0,1-7.23,2.54q-7.35,0-11.34-4.72t-4-13.38V593.46h12Zm14.15-27.73h12v45.62h-12Z" transform="translate(-54.81 -291)"/><path class="cls-6" d="M839.66,593.46H862v10.28H839.66Zm7.49,42.78c-1.86-2-2.79-5-2.79-9v-47h12v44a4.3,4.3,0,0,0,.66,2.57,2.24,2.24,0,0,0,1.93.9h3v11.6h-6.06C851.93,639.29,849,638.28,847.15,636.24Z" transform="translate(-54.81 -291)"/><path class="cls-6" d="M872.05,575.18h12v12h-12Zm0,18.28h12v45.62h-12Z" transform="translate(-54.81 -291)"/><path class="cls-6" d="M901.21,637.41a14.51,14.51,0,0,1-5.25-6.75,28.23,28.23,0,0,1-1.8-10.66v-7.29a28.9,28.9,0,0,1,1.8-10.77,13.68,13.68,0,0,1,13.53-9.14,11.09,11.09,0,0,1,6.66,2.18,15.26,15.26,0,0,1,4.86,6.17l-.92,10.11a9,9,0,0,0-.8-4,5.53,5.53,0,0,0-2.3-2.48,7.38,7.38,0,0,0-3.67-.86,6.36,6.36,0,0,0-5.25,2.31,10,10,0,0,0-1.87,6.48V620a9.58,9.58,0,0,0,1.87,6.33,6.42,6.42,0,0,0,5.25,2.24,7.6,7.6,0,0,0,3.67-.83,5.44,5.44,0,0,0,2.3-2.42,8.42,8.42,0,0,0,.8-3.82l.61,10.41a12,12,0,0,1-4.31,5.78,11.67,11.67,0,0,1-6.9,2A14.46,14.46,0,0,1,901.21,637.41Zm18.88-43.95h12v64.16h-12Z" transform="translate(-54.81 -291)"/><path class="cls-6" d="M956.21,621.19a6.81,6.81,0,0,0,1.87,5.12,7.18,7.18,0,0,0,5.25,1.82,6.94,6.94,0,0,0,5.21-1.87,7.33,7.33,0,0,0,1.82-5.33l.62,10a14.25,14.25,0,0,1-4.24,6.29,10.76,10.76,0,0,1-7.23,2.54q-7.34,0-11.34-4.72t-4-13.38V593.46h12Zm14.15-27.73h12v45.62h-12Z" transform="translate(-54.81 -291)"/><path class="cls-6" d="M1002.69,637.34a16.4,16.4,0,0,1-7.14-7,23.09,23.09,0,0,1-2.46-11.05v-5.14a26,26,0,0,1,2.35-11.56,16.4,16.4,0,0,1,6.85-7.29,22.1,22.1,0,0,1,10.88-2.51,17.39,17.39,0,0,1,10.24,3,18.38,18.38,0,0,1,6.48,8.68,37.81,37.81,0,0,1,2.22,13.73v3h-31.2v-8.13h20.21L1021,612a10.61,10.61,0,0,0-2.48-6.1,6.92,6.92,0,0,0-5.34-2.16,8.7,8.7,0,0,0-6.74,2.6c-1.6,1.72-2.4,4.17-2.4,7.33v5.81q0,4.65,2.61,7.2a10.07,10.07,0,0,0,7.32,2.55,13.81,13.81,0,0,0,4.79-.86,14.66,14.66,0,0,0,4.31-2.43l7.86,7a26,26,0,0,1-8,5,23.86,23.86,0,0,1-9,1.78A24.45,24.45,0,0,1,1002.69,637.34Z" transform="translate(-54.81 -291)"/><path class="cls-6" d="M1108.28,575.18h15.86v63.9H1113.2V589.46l.44,2.81L1101.42,632h-10.63l-12.22-38.81.44-3.69v49.62h-10.94v-63.9h15.86l12.17,43.07Z" transform="translate(-54.81 -291)"/><path class="cls-6" d="M1138.93,636.24q-3.62-3.5-3.62-10.61,0-6.76,4.06-10.15t12.2-3.39H1163l.62,9.19h-12a6.57,6.57,0,0,0-4.09,1.07,4,4,0,0,0-1.36,3.28,3.64,3.64,0,0,0,1.72,3.32,10,10,0,0,0,5.18,1.07,17.73,17.73,0,0,0,7.19-1.1,3.6,3.6,0,0,0,2.35-3.42l.92,6.63a6.28,6.28,0,0,1-2.26,4.18,13.2,13.2,0,0,1-5,2.57,23.18,23.18,0,0,1-6.35.85Q1142.55,639.73,1138.93,636.24Zm23.67-26.08a5.94,5.94,0,0,0-2.11-4.88,9.28,9.28,0,0,0-6-1.71,16,16,0,0,0-5,.83,15.14,15.14,0,0,0-4.44,2.33l-7.47-7.34a17.91,17.91,0,0,1,7.21-4.85,27.17,27.17,0,0,1,9.93-1.74,23.68,23.68,0,0,1,10.19,2,14.33,14.33,0,0,1,6.44,5.8,17.89,17.89,0,0,1,2.22,9.16v29.32H1162.6Z" transform="translate(-54.81 -291)"/><path class="cls-6" d="M1185.58,593.46h12.05v45.62h-12.05Zm26.37,18a6.85,6.85,0,0,0-1.91-5.18,7.49,7.49,0,0,0-5.43-1.85,6.92,6.92,0,0,0-5.16,1.87,7.2,7.2,0,0,0-1.82,5.25l-.93-10.11a17.16,17.16,0,0,1,5-6.46,11.77,11.77,0,0,1,7.23-2.15q7.2,0,11.16,4.86t4,13.73v27.69h-12Z" transform="translate(-54.81 -291)"/><path class="cls-6" d="M1248.08,621.19a6.81,6.81,0,0,0,1.87,5.12,7.16,7.16,0,0,0,5.25,1.82,7,7,0,0,0,5.21-1.87,7.33,7.33,0,0,0,1.82-5.33l.61,10a14.09,14.09,0,0,1-4.24,6.29,10.72,10.72,0,0,1-7.22,2.54q-7.35,0-11.34-4.72t-4-13.38V593.46h12Zm14.15-27.73h12v45.62h-12Z" transform="translate(-54.81 -291)"/><path class="cls-6" d="M1282.76,593.46h24.56v10.28h-24.56Zm4.83-6.2q0-6.06,2.79-9.07c1.86-2,4.73-3,8.59-3h8.35V585.9h-5.1a2.19,2.19,0,0,0-1.93,1,4.34,4.34,0,0,0-.66,2.5v49.71h-12Z" transform="translate(-54.81 -291)"/><path class="cls-6" d="M1314.64,636.24q-3.62-3.5-3.62-10.61,0-6.76,4.06-10.15t12.2-3.39h11.42l.62,9.19h-12a6.57,6.57,0,0,0-4.09,1.07,4,4,0,0,0-1.36,3.28,3.64,3.64,0,0,0,1.72,3.32,10,10,0,0,0,5.18,1.07,17.73,17.73,0,0,0,7.19-1.1,3.6,3.6,0,0,0,2.35-3.42l.92,6.63a6.28,6.28,0,0,1-2.26,4.18,13.2,13.2,0,0,1-5,2.57,23.18,23.18,0,0,1-6.35.85Q1318.26,639.73,1314.64,636.24Zm23.67-26.08a5.94,5.94,0,0,0-2.11-4.88,9.28,9.28,0,0,0-6-1.71,16,16,0,0,0-5,.83,15.14,15.14,0,0,0-4.44,2.33l-7.47-7.34a17.91,17.91,0,0,1,7.21-4.85,27.17,27.17,0,0,1,9.93-1.74,23.68,23.68,0,0,1,10.19,2,14.33,14.33,0,0,1,6.44,5.8,17.89,17.89,0,0,1,2.22,9.16v29.32h-10.94Z" transform="translate(-54.81 -291)"/><path class="cls-6" d="M1369.45,637.25a16.45,16.45,0,0,1-7.06-7.23A24.92,24.92,0,0,1,1360,618.6v-4.88a24.43,24.43,0,0,1,2.41-11.32,16.45,16.45,0,0,1,7.06-7.14,23.47,23.47,0,0,1,11.14-2.46,28.14,28.14,0,0,1,7.05.86,21.49,21.49,0,0,1,5.95,2.48,15.68,15.68,0,0,1,4.4,4l-7.78,7.55a12.13,12.13,0,0,0-3.91-2.39,13.06,13.06,0,0,0-4.7-.86,9.75,9.75,0,0,0-7.08,2.44,9.17,9.17,0,0,0-2.5,6.88v4.88c0,3,.83,5.4,2.5,7s4,2.48,7.08,2.48a12.21,12.21,0,0,0,4.74-.92,11,11,0,0,0,3.87-2.64l7.78,8a16.55,16.55,0,0,1-4.44,3.89,21.55,21.55,0,0,1-5.93,2.44,28.4,28.4,0,0,1-7,.83A23.23,23.23,0,0,1,1369.45,637.25Z" transform="translate(-54.81 -291)"/><path class="cls-6" d="M1402.78,593.46h22.33v10.28h-22.33Zm7.5,42.78c-1.86-2-2.79-5-2.79-9v-47h12v44a4.3,4.3,0,0,0,.66,2.57,2.24,2.24,0,0,0,1.93.9h3v11.6H1419C1415.06,639.29,1412.14,638.28,1410.28,636.24Z" transform="translate(-54.81 -291)"/><path class="cls-6" d="M1447.88,621.19a6.85,6.85,0,0,0,1.86,5.12,7.2,7.2,0,0,0,5.26,1.82,6.91,6.91,0,0,0,5.2-1.87,7.29,7.29,0,0,0,1.83-5.33l.61,10a14.17,14.17,0,0,1-4.24,6.29,10.76,10.76,0,0,1-7.23,2.54q-7.34,0-11.34-4.72t-4-13.38V593.46h12.05ZM1462,593.46h12v45.62h-12Z" transform="translate(-54.81 -291)"/><path class="cls-6" d="M1486.07,593.46H1499v45.62h-12.92Zm23.51,11.38a9.11,9.11,0,0,0-2.95-.44,7,7,0,0,0-5.64,2.35,9.75,9.75,0,0,0-2,6.53l-.92-11.87a16.38,16.38,0,0,1,4.89-6.35,10.84,10.84,0,0,1,6.62-2.26,14.07,14.07,0,0,1,5.16.9,11.26,11.26,0,0,1,4,2.66l-7,9.8A5.42,5.42,0,0,0,1509.58,604.84Z" transform="translate(-54.81 -291)"/><path class="cls-6" d="M1524,575.18h12v12h-12Zm0,18.28h12v45.62h-12Z" transform="translate(-54.81 -291)"/><path class="cls-6" d="M1547.42,593.46h12v45.62h-12Zm26.37,18a6.85,6.85,0,0,0-1.91-5.18,7.49,7.49,0,0,0-5.43-1.85,6.9,6.9,0,0,0-5.16,1.87,7.2,7.2,0,0,0-1.82,5.25l-.93-10.11a17.16,17.16,0,0,1,5-6.46,11.77,11.77,0,0,1,7.23-2.15q7.2,0,11.16,4.86t3.95,13.73v27.69h-12Z" transform="translate(-54.81 -291)"/><path class="cls-6" d="M1603.61,637.41a14.51,14.51,0,0,1-5.25-6.75,28.23,28.23,0,0,1-1.8-10.66v-7.29a28.9,28.9,0,0,1,1.8-10.77,13.68,13.68,0,0,1,13.54-9.14,11.08,11.08,0,0,1,6.65,2.18,15.26,15.26,0,0,1,4.86,6.17l-.92,10.11a9.13,9.13,0,0,0-.79-4,5.61,5.61,0,0,0-2.31-2.48,7.35,7.35,0,0,0-3.67-.86,6.36,6.36,0,0,0-5.25,2.31,10,10,0,0,0-1.87,6.48V620a9.58,9.58,0,0,0,1.87,6.33,6.42,6.42,0,0,0,5.25,2.24,7.57,7.57,0,0,0,3.67-.83,5.52,5.52,0,0,0,2.31-2.42,8.56,8.56,0,0,0,.79-3.82l.61,10.41a12,12,0,0,1-4.3,5.78,11.71,11.71,0,0,1-6.9,2A14.47,14.47,0,0,1,1603.61,637.41Zm.71,18.3a15.51,15.51,0,0,1-6.66-5.38l8.08-7.43a10.49,10.49,0,0,0,3.7,2.57,11.49,11.49,0,0,0,4.48.9,9.08,9.08,0,0,0,6.17-2.07,7.12,7.12,0,0,0,2.4-5.71V593.46h12v44.25a22.54,22.54,0,0,1-2.4,10.77,15.79,15.79,0,0,1-7,6.81,24.36,24.36,0,0,1-11.1,2.33A23.7,23.7,0,0,1,1604.32,655.71Z" transform="translate(-54.81 -291)"/></g></svg>