<svg id="Main_frame" data-name="Main frame" xmlns="http://www.w3.org/2000/svg" viewBox="0 0 503.58 511"><defs><style>.cls-1{fill:#21607f;}.cls-2{fill:#2b4d83;}.cls-3{fill:#17116a;}.cls-4{fill:#090639;}</style></defs><g id="Gear_part" data-name="Gear part"><path class="cls-1" d="M186.5,541.5v58.3s34,43.7,72,68.7V508.38S221.5,533.5,186.5,541.5Z" transform="translate(-54.81 -291)"/><path class="cls-2" d="M280,500l-.5,181.1s21,18.4,70,23.4v-255S329,482,280,500Z" transform="translate(-54.81 -291)"/><path class="cls-3" d="M372,436V705s39.81,3,73.4-36.5c-.4.5,0-303.71,0-303.71S425,400,372,436Z" transform="translate(-54.81 -291)"/><path class="cls-4" d="M463,420V543.57s59,179.3-113.5,176.36C181,689,134,536,133,485s31-111,101-111,83,17,134,45l50-47c-19-19-51-35-51-35l-22,31s-4,4-5-2-5-49-5-49l-59-20-7,46s-3,5-6-1-20-51-20-51l-56,1,12,51s1,6-6,1-33-43-33-43l-44,23,27,45s4,7-4,3-39-30-39-30-30,21-30,42l40,34s4,6-3,5L62,407s-12,20-5,58l44,22s5,4-1,6l-40-1s1,40,18,63l43,7s5,4,0,7-32,16-32,16,6,33,36,60l39-6s6,1,2,5-20,28-20,28,35,42,53,50l27-24s5-1,5,4-4,40-4,40,25,27,58,32l14-31s2-4,4,0,11.5,45.49,11.5,45.49S348,802,375,798V760s2-5,5-1l23,43s44-1,57-12l-17-38s0-6,6-3c0,1,31,31,31,31s27-10,41-34l-31-36s-1.07-6.84,6-5.42C496,705,536,729,536,729s17-30,19-53l-42-27s-4-7,3-7,41,8,41,8,5-24-4-64l-46-14s-4-3,1-6l38-9s-17-49-31-64l-41-1s-5-2,0-6l24-23Z" transform="translate(-54.81 -291)"/></g></svg>